<?xml version="1.0" encoding="utf-8"?>
<!-- Generator: Adobe Illustrator 22.1.0, SVG Export Plug-In . SVG Version: 6.00 Build 0)  -->
<svg version="1.1" id="Capa_1" xmlns="http://www.w3.org/2000/svg" xmlns:xlink="http://www.w3.org/1999/xlink" x="0px" y="0px"
	 viewBox="0 0 585.5 183" style="enable-background:new 0 0 585.5 183;" xml:space="preserve">
<style type="text/css">
	.st0{fill:#00FF6A;}
	.st1{fill:#FFFFFF;}
	.st2{fill:none;}
</style>
<path class="st0" d="M89.4,19.9c38.1,0,69,30.9,69,69c0,38.1-30.9,69-69,69c-21.1,0-38-11.4-38-11.4l-26.3,7.9l8.8-24.5
	c0,0-13.5-18.6-13.5-40.9C20.4,50.8,51.3,19.9,89.4,19.9z"/>
<path class="st1" d="M89.4,6.8c45.4,0,82.1,36.8,82.1,82.1S134.7,171,89.4,171c-22.9,0-39.6-10.2-39.6-10.2L5.6,173.8l13.6-42.3
	c0,0-11.9-20.1-11.9-42.6C7.3,43.6,44,6.8,89.4,6.8z M158.3,88.9c0-38.1-30.9-69-69-69c-38.1,0-69,30.9-69,69
	c0,22.3,13.5,40.9,13.5,40.9l-8.8,24.5l26.3-7.9c0,0,16.9,11.4,38,11.4C127.5,157.9,158.3,127,158.3,88.9z"/>
<path class="st1" d="M58.4,54.5c0,0,2.2-1.4,3.4-1.4c1.2,0,6.5,0,6.5,0s1.7,0.3,2.5,2.1c0.8,1.8,6.3,14.6,6.7,15.6
	c0.4,1,1.5,3.4-0.2,5.6c-1.7,2.2-5.2,6.3-5.2,6.3S70.6,84,71.8,86c1.2,2,5.5,8.7,11.1,13.7c5.6,5,12.5,8.7,15.9,9.8
	c3.4,1.1,4.2-0.4,5.5-2.1c1.3-1.7,5.4-6.8,5.4-6.8s1.4-2.1,4.2-0.8c2.8,1.3,16.2,7.8,16.2,7.8s1.6,0.3,1.7,2.1
	c0.1,1.8,1.2,7.3-3.7,12.6c-4.9,5.3-15.2,7.7-20.2,6.3c-4.9-1.4-21.1-5.6-31.7-15.5c-10.6-9.9-19.2-20.3-22.7-27.9
	c-3.5-7.7-3.3-12.2-3.1-14.4C50.7,68.7,51.8,58.7,58.4,54.5z"/>
<polygon class="st2" points="449.3,99.4 463.2,99.4 456.4,78.1 "/>
<path class="st2" d="M508.9,88c-4,0-6.7,1.8-8.2,5.6c-0.8,2-1.2,4.6-1.2,7.7c0,4.9,1.3,8.3,3.9,10.3c1.5,1.1,3.4,1.7,5.4,1.7
	c3.1,0,5.3-1.1,6.9-3.5c1.6-2.4,2.4-5.5,2.4-9.5c0-3.2-0.8-6.1-2.2-8.6C514.6,89.1,512.2,88,508.9,88z"/>
<path class="st2" d="M339.2,103.1l-2.6,0.5c-2.4,0.4-4.1,0.9-5.1,1.5c-1.7,1-2.5,2.4-2.5,4.5c0,1.8,0.5,3.1,1.5,3.9
	c1,0.8,2.3,1.2,3.7,1.2c2.4,0,4.6-0.7,6.6-2.1c2-1.3,3-3.9,3.1-7.5v-3.5c-0.5,0.3-1.1,0.6-1.7,0.8
	C341.5,102.6,340.5,102.8,339.2,103.1z"/>
<path class="st2" d="M556.6,88c-4,0-6.7,1.8-8.2,5.6c-0.8,2-1.2,4.6-1.2,7.7c0,4.9,1.3,8.3,3.9,10.3c1.5,1.1,3.4,1.7,5.4,1.7
	c3.1,0,5.3-1.1,6.9-3.5c1.6-2.4,2.4-5.5,2.4-9.5c0-3.2-0.8-6.1-2.2-8.6C562.3,89.1,559.9,88,556.6,88z"/>
<polygon class="st1" points="247.4,97.1 246,104.1 244.6,96.8 237.6,63 224.1,63 217.4,97 216.2,104 214.9,96.8 207.1,63 193.3,63 
	210.1,122.2 222,122.2 229.1,87.7 230.8,78.6 232.5,87.8 239.6,122.2 251.9,122.2 268.6,63 255.3,63 "/>
<path class="st1" d="M309.3,82.9c-1.4-2-3.3-3.4-5.5-4.4c-2.2-0.9-4.7-1.4-7.4-1.4c-2.4,0-4.7,0.5-6.9,1.5c-1.9,0.9-3.6,2.3-5.1,4.3
	V63.2h-12.1v59h12.1V98.4c0-3.6,0.7-6.4,2.2-8.3c1.4-1.9,3.6-2.8,6.4-2.8c2.7,0,4.5,0.9,5.5,2.8c0.7,1.4,1.1,3.2,1.1,5.4v26.7H312
	V96.4c0-3.9-0.1-6.7-0.4-8.4C311.3,86.3,310.5,84.5,309.3,82.9z"/>
<path class="st1" d="M356.7,118.6c-0.2-0.3-0.5-1.1-0.6-2.8c-0.1-1.9-0.1-3.6-0.1-5V91c0-5.3-1.9-9-5.7-11c-3.7-1.9-8-2.9-12.8-2.9
	c-7.4,0-12.7,2-15.8,5.9c-1.9,2.5-3,5.7-3.3,9.5l0,0.4H330l0.1-0.3c0.3-1.6,0.8-2.9,1.5-3.8c1-1.2,2.9-1.8,5.4-1.8
	c2.3,0,4.1,0.3,5.3,1c1.1,0.6,1.7,1.7,1.7,3.3c0,1.3-0.7,2.2-2.2,2.8c-0.9,0.4-2.3,0.7-4.4,1l-3.9,0.5c-4.4,0.6-7.8,1.5-10.1,2.8
	c-4.2,2.4-6.4,6.4-6.4,11.9c0,4.2,1.3,7.5,4,9.8c2.6,2.3,6,3.4,10,3.4c3.1,0,6-0.7,8.5-2.2c1.8-1.1,3.5-2.3,4.9-3.8
	c0.1,0.6,0.1,1.2,0.2,1.8c0.1,0.8,0.4,1.6,0.7,2.5l0.1,0.3h12.9v-2.3l-0.2-0.1C357.5,119.5,357,119.1,356.7,118.6z M343.9,105
	c-0.1,3.6-1.1,6.1-3.1,7.5c-2,1.4-4.2,2.1-6.6,2.1c-1.5,0-2.7-0.4-3.7-1.2c-1-0.8-1.5-2.1-1.5-3.9c0-2,0.8-3.5,2.5-4.5
	c1-0.6,2.7-1.1,5.1-1.5l2.6-0.5c1.3-0.2,2.3-0.5,3.1-0.8c0.6-0.2,1.1-0.5,1.7-0.8V105z"/>
<path class="st1" d="M376.7,66.6h-12v12h-6v8.8h6v26.2c0,2.8,0.7,4.9,2,6.3c1.9,1.9,5.2,2.9,9.9,2.9c0.4,0,0.9,0,1.3,0l5.7-0.2v-9.2
	l-0.4,0c-0.4,0-0.7,0-1.1,0.1c-0.4,0-0.7,0-1.1,0c-3,0-3.7-0.4-3.8-0.5c-0.2-0.2-0.6-0.9-0.6-3V87.5h7v-8.8h-7V66.6z"/>
<path class="st1" d="M412.2,95.4c-6.7-1.5-10.6-2.5-11.7-3.1c-1-0.5-1.5-1.3-1.5-2.5c0-0.9,0.5-1.7,1.4-2.4c1-0.7,2.7-1.1,5-1.1
	c2.9,0,4.9,0.7,6,2.1c0.6,0.8,1,1.9,1.1,3.2l0,0.4h12.1l0-0.4c-0.5-5.4-2.5-9.2-6-11.4c-3.4-2.2-8-3.3-13.4-3.3
	c-5.8,0-10.3,1.5-13.5,4.4c-3.2,2.9-4.8,6.5-4.8,10.6c0,3.5,1.1,6.2,3.1,8.1c2,1.9,5.6,3.4,10.5,4.6c6.7,1.6,10.7,2.7,11.7,3.4
	c0.9,0.6,1.4,1.4,1.4,2.6c0,1.2-0.6,2-1.8,2.6c-1.3,0.6-3,0.9-5.1,0.9c-3.7,0-6.2-0.7-7.5-2.1c-0.7-0.8-1.2-2.1-1.4-4.1l0-0.3h-12.2
	v0.4c0,4.5,1.7,8.3,5,11.3c3.3,2.9,8.5,4.4,15.3,4.4c6.7,0,11.8-1.4,15-4.2c3.3-2.8,4.9-6.4,4.9-10.8c0-3.3-1.2-6.2-3.5-8.4
	C420.2,98.2,416.7,96.5,412.2,95.4z"/>
<path class="st1" d="M463.7,63h-14.4l-21.1,59.2h13.6l4-12h20.9l3.9,12h14.1l-20.8-58.9L463.7,63z M449.3,99.4l7-21.3l6.8,21.3
	H449.3z"/>
<path class="st1" d="M512.1,77.3c-3.6,0-6.7,1-9.3,3c-1.1,0.9-2.2,2.1-3.3,3.5v-5.5H488v61h12v-21.6c1,1.4,2,2.4,3,3.2
	c2.3,1.8,5.3,2.7,8.9,2.7c5.5,0,10.1-2.1,13.6-6.1c3.5-4,5.3-10,5.3-17.7c0-7.3-1.8-12.9-5.4-16.7C521.7,79.2,517.3,77.3,512.1,77.3
	z M515.8,109.7c-1.6,2.3-3.9,3.5-6.9,3.5c-2.1,0-3.9-0.6-5.4-1.7c-2.6-1.9-3.9-5.4-3.9-10.3c0-3.1,0.4-5.7,1.2-7.7
	c1.5-3.8,4.2-5.6,8.2-5.6c3.3,0,5.7,1.2,7.1,3.6c1.5,2.5,2.2,5.4,2.2,8.6C518.3,104.2,517.5,107.4,515.8,109.7z"/>
<path class="st1" d="M573,83c-3.6-3.8-8-5.7-13.2-5.7c-3.6,0-6.7,1-9.3,3c-1.1,0.9-2.2,2.1-3.3,3.5v-5.5h-11.6v61h12v-21.6
	c1,1.4,2,2.4,3,3.2c2.3,1.8,5.3,2.7,8.9,2.7c5.5,0,10.1-2.1,13.6-6.1c3.5-4,5.3-10,5.3-17.7C578.4,92.4,576.6,86.8,573,83z
	 M563.5,109.7c-1.6,2.3-3.9,3.5-6.9,3.5c-2.1,0-3.9-0.6-5.4-1.7c-2.6-1.9-3.9-5.4-3.9-10.3c0-3.1,0.4-5.7,1.2-7.7
	c1.5-3.8,4.2-5.6,8.2-5.6c3.3,0,5.7,1.2,7.1,3.6c1.5,2.5,2.2,5.4,2.2,8.6C566,104.2,565.1,107.4,563.5,109.7z"/>
</svg>
